<svg width="70" height="70" viewBox="0 0 70 70" fill="none" xmlns="http://www.w3.org/2000/svg">
<path d="M34.9705 5.83301C18.8705 5.83301 5.83301 18.8997 5.83301 34.9997C5.83301 51.0997 18.8705 64.1663 34.9705 64.1663C51.0997 64.1663 64.1663 51.0997 64.1663 34.9997C64.1663 18.8997 51.0997 5.83301 34.9705 5.83301ZM34.9997 58.333C22.108 58.333 11.6663 47.8913 11.6663 34.9997C11.6663 22.108 22.108 11.6663 34.9997 11.6663C47.8913 11.6663 58.333 22.108 58.333 34.9997C58.333 47.8913 47.8913 58.333 34.9997 58.333ZM36.458 20.4163H32.083V37.9163L47.3955 47.1038L49.583 43.5163L36.458 35.7288V20.4163Z" fill="black"/>
</svg>
