<svg width="70" height="70" viewBox="0 0 70 70" fill="none" xmlns="http://www.w3.org/2000/svg">
<path d="M46.667 43.7497C52.3545 43.7497 57.6337 46.608 60.5212 51.0413C57.6337 55.4747 52.3545 58.333 46.667 58.333C40.9795 58.333 35.7003 55.4747 32.8128 51.0413C35.7003 46.608 40.9795 43.7497 46.667 43.7497ZM46.667 37.9163C37.392 37.9163 29.4587 43.3705 26.2503 51.0413C29.4587 58.7122 37.392 64.1663 46.667 64.1663C55.942 64.1663 63.8753 58.7122 67.0837 51.0413C63.8753 43.3705 55.942 37.9163 46.667 37.9163ZM46.667 55.4163C44.2462 55.4163 42.292 53.4622 42.292 51.0413C42.292 48.6205 44.2462 46.6663 46.667 46.6663C49.0878 46.6663 51.042 48.6205 51.042 51.0413C51.042 53.4622 49.0878 55.4163 46.667 55.4163ZM61.2212 35.9913C61.2503 35.6705 61.2503 35.3205 61.2503 34.9997C61.2503 18.8997 48.1837 5.83301 32.0837 5.83301C15.9837 5.83301 2.91699 18.8997 2.91699 34.9997C2.91699 50.0788 14.3795 62.5038 29.0503 64.0205C26.3378 61.8913 24.0337 59.2372 22.2837 56.2038C14.292 52.4997 8.75033 44.3913 8.75033 34.9997C8.75033 29.6038 10.5878 24.6455 13.6795 20.708L30.1878 37.2163C31.8212 36.0497 33.6003 35.0872 35.4962 34.2997L17.792 16.5955C21.7295 13.5038 26.6878 11.6663 32.0837 11.6663C44.4503 11.6663 54.542 21.2622 55.3587 33.3955C57.4295 34.0372 59.4128 34.9122 61.2212 35.9913Z" fill="black"/>
</svg>
