<svg width="70" height="70" viewBox="0 0 70 70" fill="none" xmlns="http://www.w3.org/2000/svg">
<path d="M29.8955 37.9163C29.8955 39.9288 28.2622 41.5622 26.2497 41.5622C24.2372 41.5622 22.6038 39.9288 22.6038 37.9163C22.6038 35.9038 24.2372 34.2705 26.2497 34.2705C28.2622 34.2705 29.8955 35.9038 29.8955 37.9163ZM43.7497 34.2705C41.7372 34.2705 40.1038 35.9038 40.1038 37.9163C40.1038 39.9288 41.7372 41.5622 43.7497 41.5622C45.7622 41.5622 47.3955 39.9288 47.3955 37.9163C47.3955 35.9038 45.7622 34.2705 43.7497 34.2705ZM64.1663 34.9997C64.1663 51.0997 51.0997 64.1663 34.9997 64.1663C18.8997 64.1663 5.83301 51.0997 5.83301 34.9997C5.83301 18.8997 18.8997 5.83301 34.9997 5.83301C51.0997 5.83301 64.1663 18.8997 64.1663 34.9997ZM31.0913 12.0163C35.1747 18.783 42.583 23.333 51.0413 23.333C52.383 23.333 53.6955 23.1872 54.9497 22.983C50.8663 16.2163 43.458 11.6663 34.9997 11.6663C33.658 11.6663 32.3455 11.8122 31.0913 12.0163ZM12.8913 27.6205C17.8788 24.7913 21.7288 20.183 23.5663 14.6705C18.5788 17.4997 14.7288 22.108 12.8913 27.6205ZM58.333 34.9997C58.333 32.7247 57.983 30.5372 57.3705 28.4663C55.3288 28.9038 53.2288 29.1663 51.0413 29.1663C41.9122 29.1663 33.7747 24.9663 28.408 18.4038C25.3455 25.8705 19.2497 31.733 11.6663 34.5913C11.6955 34.708 11.6663 34.8538 11.6663 34.9997C11.6663 47.8622 22.1372 58.333 34.9997 58.333C47.8622 58.333 58.333 47.8622 58.333 34.9997Z" fill="black"/>
</svg>
