<svg width="205" height="110" viewBox="0 0 205 110" fill="none" xmlns="http://www.w3.org/2000/svg">
<path d="M23.4079 18.5801L84.669 54.5491L23.4079 90.518V18.5801Z" fill="#F1F1F2" stroke="#5E5E5E" stroke-width="3"/>
<path d="M71.7513 54.5403L29.8342 79.152V29.9285L71.7513 54.5403Z" fill="#FF5F5D"/>
<line x1="24.4211" y1="0.0882568" x2="24.4211" y2="110" stroke="#F1F1F2" stroke-width="6"/>
<path d="M84.7105 54.549L190.842 55.5392" stroke="#5E5E5E" stroke-width="3"/>
<line x1="192.842" y1="38.7059" x2="192.842" y2="72.3726" stroke="#5E5E5E" stroke-width="4"/>
<line x1="202.579" y1="38.7059" x2="202.579" y2="72.3726" stroke="#5E5E5E" stroke-width="4"/>
<path d="M97.0739 76.997C97.0739 77.829 96.8659 78.525 96.4499 79.085C96.0339 79.645 95.4419 80.069 94.6739 80.357C93.9059 80.645 92.9939 80.789 91.9379 80.789C91.0419 80.789 90.2659 80.717 89.6099 80.573C88.9699 80.429 88.4019 80.229 87.9059 79.973V78.053C88.4179 78.309 89.0339 78.549 89.7539 78.773C90.4899 78.981 91.2339 79.085 91.9859 79.085C93.0579 79.085 93.8339 78.917 94.3139 78.581C94.7939 78.229 95.0339 77.765 95.0339 77.189C95.0339 76.869 94.9459 76.581 94.7699 76.325C94.5939 76.069 94.2739 75.813 93.8099 75.557C93.3619 75.301 92.7139 75.013 91.8659 74.693C91.0339 74.373 90.3219 74.053 89.7299 73.733C89.1379 73.413 88.6819 73.029 88.3619 72.581C88.0419 72.133 87.8819 71.557 87.8819 70.853C87.8819 69.765 88.3219 68.925 89.2019 68.333C90.0979 67.741 91.2659 67.445 92.7059 67.445C93.4899 67.445 94.2179 67.525 94.8899 67.685C95.5779 67.829 96.2179 68.037 96.8099 68.309L96.0899 69.989C95.7379 69.829 95.3619 69.693 94.9619 69.581C94.5779 69.453 94.1859 69.357 93.7859 69.293C93.3859 69.213 92.9779 69.173 92.5619 69.173C91.6979 69.173 91.0339 69.317 90.5699 69.605C90.1219 69.877 89.8979 70.253 89.8979 70.733C89.8979 71.085 90.0019 71.389 90.2099 71.645C90.4179 71.885 90.7619 72.125 91.2419 72.365C91.7379 72.589 92.3939 72.861 93.2099 73.181C94.0259 73.485 94.7219 73.797 95.2979 74.117C95.8739 74.437 96.3139 74.829 96.6179 75.293C96.9219 75.741 97.0739 76.309 97.0739 76.997ZM104.478 79.061C104.798 79.061 105.126 79.037 105.462 78.989C105.798 78.925 106.07 78.861 106.278 78.797V80.405C106.054 80.517 105.734 80.605 105.318 80.669C104.902 80.749 104.502 80.789 104.118 80.789C103.446 80.789 102.822 80.677 102.246 80.453C101.686 80.213 101.23 79.805 100.878 79.229C100.526 78.653 100.35 77.845 100.35 76.805V69.317H98.5263V68.309L100.374 67.469L101.214 64.733H102.462V67.685H106.182V69.317H102.462V76.757C102.462 77.541 102.646 78.125 103.014 78.509C103.398 78.877 103.886 79.061 104.478 79.061ZM120.038 74.093C120.038 75.165 119.894 76.117 119.606 76.949C119.334 77.765 118.934 78.461 118.406 79.037C117.894 79.613 117.262 80.053 116.51 80.357C115.774 80.645 114.95 80.789 114.038 80.789C113.19 80.789 112.406 80.645 111.686 80.357C110.966 80.053 110.342 79.613 109.814 79.037C109.286 78.461 108.87 77.765 108.566 76.949C108.278 76.117 108.134 75.165 108.134 74.093C108.134 72.669 108.374 71.469 108.854 70.493C109.334 69.501 110.022 68.749 110.918 68.237C111.814 67.709 112.878 67.445 114.11 67.445C115.278 67.445 116.302 67.709 117.182 68.237C118.078 68.749 118.774 69.501 119.27 70.493C119.782 71.469 120.038 72.669 120.038 74.093ZM110.318 74.093C110.318 75.101 110.446 75.981 110.702 76.733C110.974 77.469 111.39 78.037 111.95 78.437C112.51 78.837 113.222 79.037 114.086 79.037C114.95 79.037 115.662 78.837 116.222 78.437C116.782 78.037 117.19 77.469 117.446 76.733C117.718 75.981 117.854 75.101 117.854 74.093C117.854 73.069 117.718 72.197 117.446 71.477C117.174 70.757 116.758 70.205 116.198 69.821C115.654 69.421 114.942 69.221 114.062 69.221C112.75 69.221 111.798 69.653 111.206 70.517C110.614 71.381 110.318 72.573 110.318 74.093ZM129.505 67.445C131.089 67.445 132.361 67.997 133.321 69.101C134.297 70.205 134.785 71.869 134.785 74.093C134.785 75.549 134.561 76.781 134.113 77.789C133.681 78.781 133.065 79.533 132.265 80.045C131.481 80.541 130.553 80.789 129.481 80.789C128.825 80.789 128.241 80.701 127.729 80.525C127.217 80.349 126.777 80.125 126.409 79.853C126.057 79.565 125.753 79.253 125.497 78.917H125.353C125.385 79.189 125.417 79.533 125.449 79.949C125.481 80.365 125.497 80.725 125.497 81.029V86.309H123.385V67.685H125.113L125.401 69.437H125.497C125.753 69.069 126.057 68.733 126.409 68.429C126.777 68.125 127.209 67.885 127.705 67.709C128.217 67.533 128.817 67.445 129.505 67.445ZM129.121 69.221C128.257 69.221 127.561 69.389 127.033 69.725C126.505 70.045 126.121 70.533 125.881 71.189C125.641 71.845 125.513 72.677 125.497 73.685V74.093C125.497 75.149 125.609 76.045 125.833 76.781C126.057 77.517 126.433 78.077 126.961 78.461C127.505 78.845 128.241 79.037 129.169 79.037C129.953 79.037 130.593 78.821 131.089 78.389C131.601 77.957 131.977 77.373 132.217 76.637C132.473 75.885 132.601 75.029 132.601 74.069C132.601 72.597 132.313 71.421 131.737 70.541C131.177 69.661 130.305 69.221 129.121 69.221ZM144.271 67.445C145.855 67.445 147.127 67.997 148.087 69.101C149.063 70.205 149.551 71.869 149.551 74.093C149.551 75.549 149.327 76.781 148.879 77.789C148.447 78.781 147.831 79.533 147.031 80.045C146.247 80.541 145.319 80.789 144.247 80.789C143.591 80.789 143.007 80.701 142.495 80.525C141.983 80.349 141.543 80.125 141.175 79.853C140.823 79.565 140.519 79.253 140.263 78.917H140.119C140.151 79.189 140.183 79.533 140.215 79.949C140.247 80.365 140.263 80.725 140.263 81.029V86.309H138.151V67.685H139.879L140.167 69.437H140.263C140.519 69.069 140.823 68.733 141.175 68.429C141.543 68.125 141.975 67.885 142.471 67.709C142.983 67.533 143.583 67.445 144.271 67.445ZM143.887 69.221C143.023 69.221 142.327 69.389 141.799 69.725C141.271 70.045 140.887 70.533 140.647 71.189C140.407 71.845 140.279 72.677 140.263 73.685V74.093C140.263 75.149 140.375 76.045 140.599 76.781C140.823 77.517 141.199 78.077 141.727 78.461C142.271 78.845 143.007 79.037 143.935 79.037C144.719 79.037 145.359 78.821 145.855 78.389C146.367 77.957 146.743 77.373 146.983 76.637C147.239 75.885 147.367 75.029 147.367 74.069C147.367 72.597 147.079 71.421 146.503 70.541C145.943 69.661 145.071 69.221 143.887 69.221ZM157.885 67.445C158.989 67.445 159.933 67.685 160.717 68.165C161.517 68.645 162.125 69.325 162.541 70.205C162.973 71.069 163.189 72.085 163.189 73.253V74.525H154.381C154.413 75.981 154.781 77.093 155.485 77.861C156.205 78.613 157.205 78.989 158.485 78.989C159.301 78.989 160.021 78.917 160.645 78.773C161.285 78.613 161.941 78.389 162.613 78.101V79.949C161.957 80.237 161.309 80.445 160.669 80.573C160.029 80.717 159.269 80.789 158.389 80.789C157.173 80.789 156.093 80.541 155.149 80.045C154.221 79.549 153.493 78.813 152.965 77.837C152.453 76.845 152.197 75.637 152.197 74.213C152.197 72.805 152.429 71.597 152.893 70.589C153.373 69.581 154.037 68.805 154.885 68.261C155.749 67.717 156.749 67.445 157.885 67.445ZM157.861 69.173C156.853 69.173 156.053 69.501 155.461 70.157C154.885 70.797 154.541 71.693 154.429 72.845H160.981C160.981 72.109 160.869 71.469 160.645 70.925C160.421 70.381 160.077 69.957 159.613 69.653C159.165 69.333 158.581 69.173 157.861 69.173ZM172.464 67.445C172.704 67.445 172.96 67.461 173.232 67.493C173.52 67.509 173.768 67.541 173.976 67.589L173.712 69.533C173.504 69.485 173.272 69.445 173.016 69.413C172.776 69.381 172.544 69.365 172.32 69.365C171.824 69.365 171.352 69.469 170.904 69.677C170.456 69.885 170.056 70.181 169.704 70.565C169.352 70.933 169.072 71.381 168.864 71.909C168.672 72.437 168.576 73.029 168.576 73.685V80.549H166.464V67.685H168.192L168.432 70.037H168.528C168.8 69.557 169.128 69.125 169.512 68.741C169.896 68.341 170.336 68.029 170.832 67.805C171.328 67.565 171.872 67.445 172.464 67.445Z" fill="#5E5E5E"/>
<path d="M96.4499 79.085L96.0485 78.7869L96.4499 79.085ZM94.6739 80.357L94.4983 79.8889L94.6739 80.357ZM89.6099 80.573L89.5001 81.0609L89.5027 81.0614L89.6099 80.573ZM87.9059 79.973H87.4059V80.2776L87.6766 80.4174L87.9059 79.973ZM87.9059 78.053L88.1295 77.6058L87.4059 77.244V78.053H87.9059ZM89.7539 78.773L89.6053 79.2506L89.6179 79.2542L89.7539 78.773ZM94.3139 78.581L94.6007 78.9908L94.6096 78.9842L94.3139 78.581ZM94.7699 76.325L95.1819 76.0418H95.1819L94.7699 76.325ZM93.8099 75.557L93.5618 75.9912L93.5684 75.9948L93.8099 75.557ZM91.8659 74.693L91.6864 75.1597L91.6894 75.1608L91.8659 74.693ZM88.3619 72.581L87.955 72.8717L88.3619 72.581ZM89.2019 68.333L88.9263 67.9159L88.9228 67.9182L89.2019 68.333ZM94.8899 67.685L94.774 68.1716L94.7875 68.1744L94.8899 67.685ZM96.8099 68.309L97.2695 68.506L97.4614 68.0581L97.0186 67.8547L96.8099 68.309ZM96.0899 69.989L95.883 70.4442L96.3482 70.6557L96.5495 70.186L96.0899 69.989ZM94.9619 69.581L94.8038 70.0554L94.8153 70.0592L94.8271 70.0625L94.9619 69.581ZM93.7859 69.293L93.6878 69.7833L93.6973 69.7852L93.7069 69.7868L93.7859 69.293ZM90.5699 69.605L90.8294 70.0325L90.8336 70.0299L90.5699 69.605ZM90.2099 71.645L89.8218 71.9603L89.8269 71.9665L89.8321 71.9725L90.2099 71.645ZM91.2419 72.365L91.0183 72.8123L91.0271 72.8167L91.0361 72.8207L91.2419 72.365ZM93.2099 73.181L93.0273 73.6466L93.0353 73.6496L93.2099 73.181ZM95.2979 74.117L95.0551 74.5541L95.2979 74.117ZM96.6179 75.293L96.1996 75.5671L96.2042 75.5738L96.6179 75.293ZM96.5739 76.997C96.5739 77.7429 96.3889 78.3288 96.0485 78.7869L96.8513 79.3832C97.3429 78.7213 97.5739 77.9151 97.5739 76.997H96.5739ZM96.0485 78.7869C95.6993 79.2569 95.1924 79.6286 94.4983 79.8889L94.8495 80.8252C95.6914 80.5095 96.3685 80.0331 96.8513 79.3832L96.0485 78.7869ZM94.4983 79.8889C93.8 80.1507 92.9503 80.289 91.9379 80.289V81.289C93.0374 81.289 94.0118 81.1393 94.8495 80.8252L94.4983 79.8889ZM91.9379 80.289C91.0668 80.289 90.3285 80.2189 89.7171 80.0847L89.5027 81.0614C90.2033 81.2152 91.017 81.289 91.9379 81.289V80.289ZM89.7197 80.0852C89.1141 79.949 88.5875 79.7621 88.1352 79.5287L87.6766 80.4174C88.2163 80.6959 88.8256 80.9091 89.5001 81.0608L89.7197 80.0852ZM88.4059 79.973V78.053H87.4059V79.973H88.4059ZM87.6823 78.5003C88.2247 78.7714 88.8671 79.0208 89.6054 79.2505L89.9024 78.2956C89.2006 78.0773 88.6111 77.8466 88.1295 77.6058L87.6823 78.5003ZM89.6179 79.2542C90.3974 79.4745 91.1871 79.585 91.9859 79.585V78.585C91.2807 78.585 90.5824 78.4876 89.8899 78.2919L89.6179 79.2542ZM91.9859 79.585C93.0867 79.585 93.9916 79.417 94.6006 78.9907L94.0272 78.1714C93.6762 78.4171 93.0291 78.585 91.9859 78.585V79.585ZM94.6096 78.9842C95.213 78.5418 95.5339 77.9305 95.5339 77.189H94.5339C94.5339 77.5996 94.3748 77.9163 94.0182 78.1778L94.6096 78.9842ZM95.5339 77.189C95.5339 76.7711 95.417 76.3838 95.1819 76.0418L94.3579 76.6083C94.4748 76.7783 94.5339 76.967 94.5339 77.189H95.5339ZM95.1819 76.0418C94.9411 75.6915 94.5418 75.3898 94.0514 75.1193L93.5684 75.9948C94.006 76.2363 94.2467 76.4466 94.3579 76.6083L95.1819 76.0418ZM94.058 75.1229C93.5761 74.8476 92.8996 74.5487 92.0424 74.2252L91.6894 75.1608C92.5282 75.4774 93.1477 75.7545 93.5618 75.9912L94.058 75.1229ZM92.0454 74.2264C91.2274 73.9117 90.5359 73.6004 89.9677 73.2932L89.4921 74.1729C90.1079 74.5057 90.8404 74.8343 91.6864 75.1597L92.0454 74.2264ZM89.9677 73.2932C89.428 73.0015 89.0357 72.6642 88.7688 72.2904L87.955 72.8717C88.328 73.3939 88.8478 73.8246 89.4921 74.1729L89.9677 73.2932ZM88.7688 72.2904C88.5243 71.9482 88.3819 71.4819 88.3819 70.853H87.3819C87.3819 71.6322 87.5595 72.3179 87.955 72.8717L88.7688 72.2904ZM88.3819 70.853C88.3819 69.9263 88.7433 69.2442 89.481 68.7479L88.9228 67.9182C87.9005 68.6059 87.3819 69.6038 87.3819 70.853H88.3819ZM89.4775 68.7502C90.2682 68.2278 91.3313 67.945 92.7059 67.945V66.945C91.2005 66.945 89.9276 67.2543 88.9263 67.9159L89.4775 68.7502ZM92.7059 67.945C93.456 67.945 94.1447 68.0216 94.7741 68.1714L95.0057 67.1986C94.2911 67.0285 93.5238 66.945 92.7059 66.945V67.945ZM94.7875 68.1744C95.4417 68.3114 96.0457 68.5082 96.6011 68.7634L97.0186 67.8547C96.3901 67.5659 95.7141 67.3467 94.9923 67.1956L94.7875 68.1744ZM96.3503 68.1121L95.6303 69.7921L96.5495 70.186L97.2695 68.506L96.3503 68.1121ZM96.2968 69.5339C95.9198 69.3625 95.5196 69.218 95.0967 69.0996L94.8271 70.0625C95.2042 70.1681 95.556 70.2956 95.883 70.4442L96.2968 69.5339ZM95.12 69.1067C94.7102 68.9701 94.2917 68.8676 93.8649 68.7993L93.7069 69.7868C94.0801 69.8465 94.4456 69.936 94.8038 70.0554L95.12 69.1067ZM93.884 68.8028C93.451 68.7162 93.0102 68.673 92.5619 68.673V69.673C92.9456 69.673 93.3208 69.7099 93.6878 69.7833L93.884 68.8028ZM92.5619 68.673C91.6542 68.673 90.8829 68.8223 90.3062 69.1802L90.8336 70.0299C91.1849 69.8118 91.7416 69.673 92.5619 69.673V68.673ZM90.3104 69.1776C89.7296 69.5303 89.3979 70.0599 89.3979 70.733H90.3979C90.3979 70.4462 90.5142 70.2238 90.8294 70.0324L90.3104 69.1776ZM89.3979 70.733C89.3979 71.1916 89.5364 71.609 89.8218 71.9603L90.598 71.3297C90.4674 71.1691 90.3979 70.9785 90.3979 70.733H89.3979ZM89.8321 71.9725C90.1029 72.285 90.5145 72.5604 91.0183 72.8123L91.4655 71.9178C91.0093 71.6897 90.7329 71.4851 90.5877 71.3176L89.8321 71.9725ZM91.0361 72.8207C91.5429 73.0496 92.2076 73.3251 93.0274 73.6465L93.3924 72.7156C92.5802 72.397 91.9329 72.1285 91.4477 71.9094L91.0361 72.8207ZM93.0353 73.6496C93.8348 73.9474 94.5067 74.2495 95.0551 74.5541L95.5407 73.68C94.9371 73.3446 94.217 73.0227 93.3845 72.7125L93.0353 73.6496ZM95.0551 74.5541C95.5735 74.8421 95.9477 75.1825 96.1997 75.5671L97.0361 75.019C96.6801 74.4756 96.1743 74.0319 95.5407 73.68L95.0551 74.5541ZM96.2042 75.5738C96.4385 75.9191 96.5739 76.3821 96.5739 76.997H97.5739C97.5739 76.236 97.4053 75.563 97.0316 75.0123L96.2042 75.5738ZM105.462 78.989L105.533 79.484L105.544 79.4824L105.556 79.4802L105.462 78.989ZM106.278 78.797H106.778V78.1201L106.131 78.3192L106.278 78.797ZM106.278 80.405L106.502 80.8523L106.778 80.7141V80.405H106.278ZM105.318 80.669L105.242 80.1749L105.233 80.1763L105.224 80.178L105.318 80.669ZM102.246 80.453L102.049 80.9126L102.057 80.916L102.065 80.919L102.246 80.453ZM100.35 69.317H100.85V68.817H100.35V69.317ZM98.5263 69.317H98.0263V69.817H98.5263V69.317ZM98.5263 68.309L98.3194 67.8539L98.0263 67.9871V68.309H98.5263ZM100.374 67.469L100.581 67.9242L100.786 67.831L100.852 67.6158L100.374 67.469ZM101.214 64.733V64.233H100.845L100.736 64.5863L101.214 64.733ZM102.462 64.733H102.962V64.233H102.462V64.733ZM102.462 67.685H101.962V68.185H102.462V67.685ZM106.182 67.685H106.682V67.185H106.182V67.685ZM106.182 69.317V69.817H106.682V69.317H106.182ZM102.462 69.317V68.817H101.962V69.317H102.462ZM103.014 78.509L102.653 78.855L102.661 78.8627L102.668 78.87L103.014 78.509ZM104.478 79.561C104.823 79.561 105.175 79.5352 105.533 79.484L105.392 78.4941C105.078 78.5389 104.773 78.561 104.478 78.561V79.561ZM105.556 79.4802C105.901 79.4145 106.193 79.3465 106.425 79.2749L106.131 78.3192C105.948 78.3756 105.696 78.4356 105.369 78.4979L105.556 79.4802ZM105.778 78.797V80.405H106.778V78.797H105.778ZM106.055 79.9578C105.898 80.0361 105.637 80.1142 105.242 80.1749L105.394 81.1632C105.832 81.0959 106.21 80.998 106.502 80.8523L106.055 79.9578ZM105.224 80.178C104.836 80.2527 104.468 80.289 104.118 80.289V81.289C104.537 81.289 104.969 81.2454 105.413 81.16L105.224 80.178ZM104.118 80.289C103.503 80.289 102.941 80.1867 102.427 79.987L102.065 80.919C102.704 81.1674 103.39 81.289 104.118 81.289V80.289ZM102.443 79.9935C101.989 79.7987 101.609 79.4658 101.305 78.9683L100.452 79.4898C100.852 80.1443 101.384 80.6274 102.049 80.9126L102.443 79.9935ZM101.305 78.9683C101.02 78.5024 100.85 77.7988 100.85 76.805H99.8503C99.8503 77.8913 100.032 78.8037 100.452 79.4898L101.305 78.9683ZM100.85 76.805V69.317H99.8503V76.805H100.85ZM100.35 68.817H98.5263V69.817H100.35V68.817ZM99.0263 69.317V68.309H98.0263V69.317H99.0263ZM98.7332 68.7642L100.581 67.9242L100.167 67.0139L98.3194 67.8539L98.7332 68.7642ZM100.852 67.6158L101.692 64.8798L100.736 64.5863L99.8963 67.3223L100.852 67.6158ZM101.214 65.233H102.462V64.233H101.214V65.233ZM101.962 64.733V67.685H102.962V64.733H101.962ZM102.462 68.185H106.182V67.185H102.462V68.185ZM105.682 67.685V69.317H106.682V67.685H105.682ZM106.182 68.817H102.462V69.817H106.182V68.817ZM101.962 69.317V76.757H102.962V69.317H101.962ZM101.962 76.757C101.962 77.6095 102.162 78.3419 102.653 78.855L103.375 78.1631C103.131 77.9082 102.962 77.4725 102.962 76.757H101.962ZM102.668 78.87C103.156 79.3376 103.773 79.561 104.478 79.561V78.561C103.999 78.561 103.64 78.4164 103.36 78.148L102.668 78.87ZM119.606 76.949L119.134 76.7855L119.132 76.7909L119.606 76.949ZM118.406 79.037L118.038 78.6991L118.032 78.7049L118.406 79.037ZM116.51 80.357L116.692 80.8227L116.698 80.8206L116.51 80.357ZM111.686 80.357L111.492 80.8177L111.5 80.8213L111.686 80.357ZM109.814 79.037L109.446 79.3749L109.814 79.037ZM108.566 76.949L108.094 77.1126L108.098 77.1236L108.566 76.949ZM108.854 70.493L109.303 70.7137L109.304 70.7108L108.854 70.493ZM110.918 68.237L111.166 68.6712L111.172 68.6678L110.918 68.237ZM117.182 68.237L116.925 68.6659L116.934 68.6712L117.182 68.237ZM119.27 70.493L118.823 70.7167L118.827 70.7253L119.27 70.493ZM110.702 76.733L110.229 76.8942L110.233 76.9064L110.702 76.733ZM111.95 78.437L112.241 78.0302H112.241L111.95 78.437ZM116.222 78.437L115.932 78.0302L116.222 78.437ZM117.446 76.733L116.976 76.563L116.974 76.5688L117.446 76.733ZM117.446 71.477L117.914 71.3003L117.446 71.477ZM116.198 69.821L115.902 70.2239L115.909 70.2287L115.915 70.2334L116.198 69.821ZM111.206 70.517L111.619 70.7997L111.206 70.517ZM119.538 74.093C119.538 75.1211 119.4 76.0161 119.134 76.7855L120.079 77.1126C120.388 76.218 120.538 75.209 120.538 74.093H119.538ZM119.132 76.7909C118.88 77.547 118.513 78.18 118.038 78.6992L118.775 79.3749C119.355 78.7421 119.789 77.9831 120.08 77.1072L119.132 76.7909ZM118.032 78.7049C117.574 79.2203 117.007 79.6168 116.323 79.8935L116.698 80.8206C117.517 80.4893 118.214 80.0058 118.78 79.3692L118.032 78.7049ZM116.328 79.8914C115.658 80.1535 114.897 80.289 114.038 80.289V81.289C115.003 81.289 115.89 81.1366 116.692 80.8227L116.328 79.8914ZM114.038 80.289C113.248 80.289 112.527 80.1551 111.872 79.8928L111.5 80.8213C112.285 81.135 113.133 81.289 114.038 81.289V80.289ZM111.881 79.8964C111.227 79.6204 110.662 79.2222 110.183 78.6992L109.446 79.3749C110.022 80.0039 110.706 80.4857 111.492 80.8177L111.881 79.8964ZM110.183 78.6992C109.703 78.1758 109.319 77.537 109.035 76.7745L108.098 77.1236C108.422 77.9931 108.869 78.7463 109.446 79.3749L110.183 78.6992ZM109.039 76.7855C108.772 76.0161 108.634 75.1211 108.634 74.093H107.634C107.634 75.209 107.784 76.218 108.094 77.1126L109.039 76.7855ZM108.634 74.093C108.634 72.7228 108.865 71.6032 109.303 70.7137L108.405 70.2724C107.883 71.3349 107.634 72.6153 107.634 74.093H108.634ZM109.304 70.7108C109.743 69.8032 110.364 69.1296 111.166 68.6712L110.67 67.8029C109.68 68.3685 108.925 69.1989 108.404 70.2753L109.304 70.7108ZM111.172 68.6678C111.978 68.1929 112.951 67.945 114.11 67.945V66.945C112.805 66.945 111.65 67.2252 110.664 67.8063L111.172 68.6678ZM114.11 67.945C115.2 67.945 116.133 68.1906 116.925 68.6658L117.439 67.8083C116.471 67.2275 115.356 66.945 114.11 66.945V67.945ZM116.934 68.6712C117.738 69.1305 118.368 69.806 118.823 70.7166L119.717 70.2694C119.181 69.1961 118.418 68.3676 117.43 67.8029L116.934 68.6712ZM118.827 70.7253C119.292 71.6118 119.538 72.727 119.538 74.093H120.538C120.538 72.611 120.272 71.3263 119.713 70.2608L118.827 70.7253ZM109.818 74.093C109.818 75.1418 109.951 76.0785 110.229 76.8942L111.175 76.5719C110.941 75.8836 110.818 75.0603 110.818 74.093H109.818ZM110.233 76.9064C110.535 77.7227 111.007 78.3778 111.66 78.8439L112.241 78.0302C111.773 77.6963 111.413 77.2154 111.171 76.5597L110.233 76.9064ZM111.66 78.8439C112.324 79.3184 113.145 79.537 114.086 79.537V78.537C113.3 78.537 112.696 78.3557 112.241 78.0302L111.66 78.8439ZM114.086 79.537C115.028 79.537 115.848 79.3184 116.513 78.8439L115.932 78.0302C115.476 78.3557 114.873 78.537 114.086 78.537V79.537ZM116.513 78.8439C117.168 78.376 117.633 77.7176 117.918 76.8973L116.974 76.5688C116.747 77.2205 116.396 77.6981 115.932 78.0302L116.513 78.8439ZM117.916 76.9031C118.212 76.0845 118.354 75.1446 118.354 74.093H117.354C117.354 75.0575 117.224 75.8776 116.976 76.563L117.916 76.9031ZM118.354 74.093C118.354 73.0275 118.213 72.0921 117.914 71.3003L116.978 71.6537C117.223 72.302 117.354 73.1106 117.354 74.093H118.354ZM117.914 71.3003C117.611 70.498 117.136 69.858 116.481 69.4087L115.915 70.2334C116.38 70.5521 116.738 71.0161 116.978 71.6537L117.914 71.3003ZM116.494 69.4182C115.842 68.9383 115.016 68.721 114.062 68.721V69.721C114.868 69.721 115.467 69.9038 115.902 70.2239L116.494 69.4182ZM114.062 68.721C112.632 68.721 111.503 69.1997 110.794 70.2344L111.619 70.7997C112.094 70.1063 112.868 69.721 114.062 69.721V68.721ZM110.794 70.2344C110.124 71.2114 109.818 72.5155 109.818 74.093H110.818C110.818 72.6305 111.104 71.5507 111.619 70.7997L110.794 70.2344ZM133.321 69.101L132.944 69.4291L132.947 69.4322L133.321 69.101ZM134.113 77.789L133.656 77.586L133.655 77.5894L134.113 77.789ZM132.265 80.045L132.533 80.4676L132.535 80.4662L132.265 80.045ZM127.729 80.525L127.567 80.9979L127.729 80.525ZM126.409 79.853L126.093 80.24L126.102 80.2478L126.112 80.2551L126.409 79.853ZM125.497 78.917L125.895 78.614L125.745 78.417H125.497V78.917ZM125.353 78.917V78.417H124.791L124.857 78.9755L125.353 78.917ZM125.449 79.949L124.951 79.9874L125.449 79.949ZM125.497 86.309V86.809H125.997V86.309H125.497ZM123.385 86.309H122.885V86.809H123.385V86.309ZM123.385 67.685V67.185H122.885V67.685H123.385ZM125.113 67.685L125.607 67.6039L125.538 67.185H125.113V67.685ZM125.401 69.437L124.908 69.5181L124.977 69.937H125.401V69.437ZM125.497 69.437V69.937H125.759L125.908 69.7226L125.497 69.437ZM126.409 68.429L126.091 68.0435L126.083 68.0506L126.409 68.429ZM127.705 67.709L127.543 67.2362L127.538 67.2378L127.705 67.709ZM127.033 69.725L127.293 70.1527L127.302 70.1469L127.033 69.725ZM125.497 73.685L124.997 73.6771V73.685H125.497ZM125.833 76.781L125.355 76.9266L125.833 76.781ZM126.961 78.461L126.667 78.8654L126.673 78.8695L126.961 78.461ZM131.089 78.389L130.767 78.0068L130.761 78.012L131.089 78.389ZM132.217 76.637L131.744 76.4759L131.742 76.482L132.217 76.637ZM131.737 70.541L131.316 70.8095L131.319 70.8149L131.737 70.541ZM129.505 67.945C130.958 67.945 132.088 68.4441 132.944 69.4291L133.699 68.773C132.635 67.5499 131.221 66.945 129.505 66.945V67.945ZM132.947 69.4322C133.809 70.408 134.285 71.9309 134.285 74.093H135.285C135.285 71.8072 134.785 70.002 133.696 68.7699L132.947 69.4322ZM134.285 74.093C134.285 75.5004 134.069 76.6589 133.656 77.586L134.57 77.9921C135.054 76.9032 135.285 75.5977 135.285 74.093H134.285ZM133.655 77.5894C133.257 78.5035 132.701 79.1726 131.996 79.6239L132.535 80.4662C133.43 79.8935 134.106 79.0586 134.572 77.9887L133.655 77.5894ZM131.998 79.6225C131.306 80.0604 130.474 80.289 129.481 80.289V81.289C130.633 81.289 131.657 81.0217 132.533 80.4676L131.998 79.6225ZM129.481 80.289C128.869 80.289 128.342 80.2069 127.892 80.0522L127.567 80.9979C128.141 81.1952 128.781 81.289 129.481 81.289V80.289ZM127.892 80.0522C127.42 79.8898 127.027 79.6877 126.707 79.451L126.112 80.2551C126.528 80.5624 127.015 80.8083 127.567 80.9979L127.892 80.0522ZM126.726 79.4661C126.402 79.2009 126.126 78.9167 125.895 78.614L125.1 79.2201C125.381 79.5894 125.713 79.9292 126.093 80.24L126.726 79.4661ZM125.497 78.417H125.353V79.417H125.497V78.417ZM124.857 78.9755C124.888 79.2383 124.919 79.575 124.951 79.9874L125.948 79.9107C125.916 79.4911 125.883 79.1398 125.85 78.8586L124.857 78.9755ZM124.951 79.9874C124.982 80.395 124.997 80.7415 124.997 81.029H125.997C125.997 80.7085 125.981 80.3351 125.948 79.9107L124.951 79.9874ZM124.997 81.029V86.309H125.997V81.029H124.997ZM125.497 85.809H123.385V86.809H125.497V85.809ZM123.885 86.309V67.685H122.885V86.309H123.885ZM123.385 68.185H125.113V67.185H123.385V68.185ZM124.62 67.7661L124.908 69.5181L125.895 69.3559L125.607 67.6039L124.62 67.7661ZM125.401 69.937H125.497V68.937H125.401V69.937ZM125.908 69.7226C126.139 69.3902 126.415 69.0851 126.736 68.8075L126.083 68.0506C125.7 68.3809 125.368 68.7479 125.087 69.1515L125.908 69.7226ZM126.728 68.8145C127.046 68.5513 127.426 68.3387 127.873 68.1803L127.538 67.2378C126.993 67.4314 126.508 67.6987 126.091 68.0436L126.728 68.8145ZM127.868 68.1819C128.316 68.028 128.858 67.945 129.505 67.945V66.945C128.776 66.945 128.119 67.0381 127.543 67.2362L127.868 68.1819ZM129.121 68.721C128.197 68.721 127.398 68.9002 126.765 69.3032L127.302 70.1469C127.725 69.8779 128.318 69.721 129.121 69.721V68.721ZM126.774 69.2974C126.136 69.684 125.685 70.2694 125.412 71.0173L126.351 71.3608C126.557 70.7967 126.874 70.4061 127.293 70.1526L126.774 69.2974ZM125.412 71.0173C125.146 71.7435 125.014 72.6358 124.997 73.6771L125.997 73.693C126.013 72.7183 126.137 71.9466 126.351 71.3608L125.412 71.0173ZM124.997 73.685V74.093H125.997V73.685H124.997ZM124.997 74.093C124.997 75.1814 125.112 76.1295 125.355 76.9266L126.312 76.6355C126.106 75.9605 125.997 75.1167 125.997 74.093H124.997ZM125.355 76.9266C125.605 77.7474 126.036 78.4066 126.667 78.8654L127.255 78.0567C126.83 77.7475 126.51 77.2867 126.312 76.6355L125.355 76.9266ZM126.673 78.8695C127.329 79.3324 128.178 79.537 129.169 79.537V78.537C128.305 78.537 127.682 78.3577 127.25 78.0526L126.673 78.8695ZM129.169 79.537C130.05 79.537 130.814 79.292 131.418 78.7661L130.761 78.012C130.373 78.3501 129.857 78.537 129.169 78.537V79.537ZM131.412 78.7712C132.005 78.2703 132.428 77.6025 132.693 76.7921L131.742 76.482C131.526 77.1436 131.197 77.6438 130.767 78.0069L131.412 78.7712ZM132.691 76.7982C132.968 75.9848 133.101 75.0728 133.101 74.069H132.101C132.101 74.9853 131.979 75.7853 131.744 76.4759L132.691 76.7982ZM133.101 74.069C133.101 72.5371 132.802 71.2551 132.156 70.2672L131.319 70.8149C131.824 71.587 132.101 72.6569 132.101 74.069H133.101ZM132.159 70.2726C131.494 69.2268 130.449 68.721 129.121 68.721V69.721C130.162 69.721 130.861 70.0953 131.316 70.8095L132.159 70.2726ZM148.087 69.101L147.71 69.4291L147.712 69.4322L148.087 69.101ZM148.879 77.789L148.422 77.586L148.421 77.5894L148.879 77.789ZM147.031 80.045L147.298 80.4676L147.301 80.4662L147.031 80.045ZM142.495 80.525L142.332 80.9979L142.495 80.525ZM141.175 79.853L140.858 80.24L140.868 80.2478L140.878 80.2551L141.175 79.853ZM140.263 78.917L140.661 78.614L140.511 78.417H140.263V78.917ZM140.119 78.917V78.417H139.557L139.622 78.9755L140.119 78.917ZM140.215 79.949L139.716 79.9874L140.215 79.949ZM140.263 86.309V86.809H140.763V86.309H140.263ZM138.151 86.309H137.651V86.809H138.151V86.309ZM138.151 67.685V67.185H137.651V67.685H138.151ZM139.879 67.685L140.372 67.6039L140.304 67.185H139.879V67.685ZM140.167 69.437L139.674 69.5181L139.743 69.937H140.167V69.437ZM140.263 69.437V69.937H140.524L140.673 69.7226L140.263 69.437ZM141.175 68.429L140.857 68.0435L140.848 68.0506L141.175 68.429ZM142.471 67.709L142.308 67.2362L142.304 67.2378L142.471 67.709ZM141.799 69.725L142.058 70.1527L142.067 70.1469L141.799 69.725ZM140.263 73.685L139.763 73.6771V73.685H140.263ZM140.599 76.781L140.121 76.9266L140.599 76.781ZM141.727 78.461L141.433 78.8654L141.439 78.8695L141.727 78.461ZM145.855 78.389L145.533 78.0068L145.527 78.012L145.855 78.389ZM146.983 76.637L146.51 76.4759L146.508 76.482L146.983 76.637ZM146.503 70.541L146.081 70.8095L146.085 70.8149L146.503 70.541ZM144.271 67.945C145.724 67.945 146.853 68.4441 147.71 69.4291L148.464 68.773C147.401 67.5499 145.986 66.945 144.271 66.945V67.945ZM147.712 69.4322C148.575 70.408 149.051 71.9309 149.051 74.093H150.051C150.051 71.8072 149.551 70.002 148.462 68.7699L147.712 69.4322ZM149.051 74.093C149.051 75.5004 148.834 76.6589 148.422 77.586L149.336 77.9921C149.82 76.9032 150.051 75.5977 150.051 74.093H149.051ZM148.421 77.5894C148.023 78.5035 147.467 79.1726 146.761 79.6239L147.301 80.4662C148.195 79.8935 148.872 79.0586 149.337 77.9887L148.421 77.5894ZM146.764 79.6225C146.071 80.0604 145.239 80.289 144.247 80.289V81.289C145.399 81.289 146.423 81.0217 147.298 80.4676L146.764 79.6225ZM144.247 80.289C143.635 80.289 143.108 80.2069 142.658 80.0522L142.332 80.9979C142.907 81.1952 143.547 81.289 144.247 81.289V80.289ZM142.658 80.0522C142.185 79.8898 141.792 79.6877 141.472 79.451L140.878 80.2551C141.294 80.5624 141.781 80.8083 142.332 80.9979L142.658 80.0522ZM141.492 79.4661C141.168 79.2009 140.891 78.9167 140.661 78.614L139.865 79.2201C140.147 79.5894 140.478 79.9292 140.858 80.24L141.492 79.4661ZM140.263 78.417H140.119V79.417H140.263V78.417ZM139.622 78.9755C139.653 79.2383 139.685 79.575 139.716 79.9874L140.714 79.9107C140.681 79.4911 140.649 79.1398 140.616 78.8586L139.622 78.9755ZM139.716 79.9874C139.748 80.395 139.763 80.7415 139.763 81.029H140.763C140.763 80.7085 140.746 80.3351 140.714 79.9107L139.716 79.9874ZM139.763 81.029V86.309H140.763V81.029H139.763ZM140.263 85.809H138.151V86.809H140.263V85.809ZM138.651 86.309V67.685H137.651V86.309H138.651ZM138.151 68.185H139.879V67.185H138.151V68.185ZM139.386 67.7661L139.674 69.5181L140.66 69.3559L140.372 67.6039L139.386 67.7661ZM140.167 69.937H140.263V68.937H140.167V69.937ZM140.673 69.7226C140.905 69.3902 141.18 69.0851 141.502 68.8075L140.848 68.0506C140.466 68.3809 140.133 68.7479 139.853 69.1515L140.673 69.7226ZM141.493 68.8145C141.812 68.5513 142.192 68.3387 142.638 68.1803L142.304 67.2378C141.758 67.4314 141.274 67.6987 140.857 68.0436L141.493 68.8145ZM142.634 68.1819C143.081 68.028 143.624 67.945 144.271 67.945V66.945C143.542 66.945 142.885 67.0381 142.308 67.2362L142.634 68.1819ZM143.887 68.721C142.963 68.721 142.164 68.9002 141.531 69.3032L142.067 70.1469C142.49 69.8779 143.083 69.721 143.887 69.721V68.721ZM141.54 69.2974C140.902 69.684 140.451 70.2694 140.177 71.0173L141.117 71.3608C141.323 70.7967 141.64 70.4061 142.058 70.1526L141.54 69.2974ZM140.177 71.0173C139.912 71.7435 139.78 72.6358 139.763 73.6771L140.763 73.693C140.778 72.7183 140.902 71.9466 141.117 71.3608L140.177 71.0173ZM139.763 73.685V74.093H140.763V73.685H139.763ZM139.763 74.093C139.763 75.1814 139.878 76.1295 140.121 76.9266L141.077 76.6355C140.872 75.9605 140.763 75.1167 140.763 74.093H139.763ZM140.121 76.9266C140.37 77.7474 140.802 78.4066 141.433 78.8654L142.021 78.0567C141.596 77.7475 141.276 77.2867 141.077 76.6355L140.121 76.9266ZM141.439 78.8695C142.094 79.3324 142.943 79.537 143.935 79.537V78.537C143.071 78.537 142.448 78.3577 142.015 78.0526L141.439 78.8695ZM143.935 79.537C144.815 79.537 145.58 79.292 146.183 78.7661L145.527 78.012C145.138 78.3501 144.623 78.537 143.935 78.537V79.537ZM146.177 78.7712C146.771 78.2703 147.194 77.6025 147.458 76.7921L146.508 76.482C146.292 77.1436 145.963 77.6438 145.533 78.0069L146.177 78.7712ZM147.456 76.7982C147.733 75.9848 147.867 75.0728 147.867 74.069H146.867C146.867 74.9853 146.745 75.7853 146.51 76.4759L147.456 76.7982ZM147.867 74.069C147.867 72.5371 147.568 71.2551 146.921 70.2672L146.085 70.8149C146.59 71.587 146.867 72.6569 146.867 74.069H147.867ZM146.925 70.2726C146.259 69.2268 145.215 68.721 143.887 68.721V69.721C144.927 69.721 145.627 70.0953 146.081 70.8095L146.925 70.2726ZM160.717 68.165L160.456 68.5915L160.459 68.5938L160.717 68.165ZM162.541 70.205L162.089 70.4188L162.093 70.4286L162.541 70.205ZM163.189 74.525V75.025H163.689V74.525H163.189ZM154.381 74.525V74.025H153.87L153.881 74.536L154.381 74.525ZM155.485 77.861L155.116 78.199L155.123 78.2068L155.485 77.861ZM160.645 78.773L160.757 79.2603L160.766 79.2581L160.645 78.773ZM162.613 78.101H163.113V77.3428L162.416 77.6415L162.613 78.101ZM162.613 79.949L162.814 80.4069L163.113 80.2756V79.949H162.613ZM160.669 80.573L160.571 80.0826L160.559 80.0852L160.669 80.573ZM155.149 80.045L154.913 80.486L154.916 80.4877L155.149 80.045ZM152.965 77.837L152.52 78.0664L152.525 78.075L152.965 77.837ZM152.893 70.589L152.441 70.3741L152.438 70.38L152.893 70.589ZM154.885 68.261L154.618 67.8379L154.615 67.8402L154.885 68.261ZM155.461 70.157L155.089 69.8221L155.089 69.8226L155.461 70.157ZM154.429 72.845L153.931 72.7967L153.878 73.345H154.429V72.845ZM160.981 72.845V73.345H161.481V72.845H160.981ZM160.645 70.925L160.182 71.1154L160.645 70.925ZM159.613 69.653L159.322 70.0599L159.33 70.0658L159.339 70.0713L159.613 69.653ZM157.885 67.945C158.915 67.945 159.765 68.1685 160.456 68.5915L160.978 67.7386C160.101 67.2016 159.062 66.945 157.885 66.945V67.945ZM160.459 68.5938C161.171 69.0207 161.713 69.624 162.089 70.4187L162.993 69.9914C162.536 69.0261 161.862 68.2694 160.974 67.7363L160.459 68.5938ZM162.093 70.4286C162.484 71.2102 162.689 72.1466 162.689 73.253H163.689C163.689 72.0234 163.461 70.9279 162.988 69.9814L162.093 70.4286ZM162.689 73.253V74.525H163.689V73.253H162.689ZM163.189 74.025H154.381V75.025H163.189V74.025ZM153.881 74.536C153.914 76.0652 154.303 77.3115 155.116 78.1989L155.853 77.5232C155.259 76.8746 154.911 75.8968 154.881 74.5141L153.881 74.536ZM155.123 78.2068C155.959 79.0791 157.102 79.489 158.485 79.489V78.489C157.308 78.489 156.451 78.1469 155.846 77.5153L155.123 78.2068ZM158.485 79.489C159.329 79.489 160.088 79.4147 160.757 79.2602L160.532 78.2858C159.954 78.4194 159.273 78.489 158.485 78.489V79.489ZM160.766 79.2581C161.434 79.091 162.116 78.858 162.81 78.5606L162.416 77.6415C161.766 77.9201 161.135 78.1351 160.523 78.288L160.766 79.2581ZM162.113 78.101V79.949H163.113V78.101H162.113ZM162.412 79.4912C161.786 79.7661 161.172 79.9625 160.571 80.0828L160.767 81.0633C161.445 80.9276 162.128 80.708 162.814 80.4069L162.412 79.4912ZM160.559 80.0852C159.965 80.2189 159.243 80.289 158.389 80.289V81.289C159.294 81.289 160.093 81.2152 160.778 81.0608L160.559 80.0852ZM158.389 80.289C157.242 80.289 156.244 80.0557 155.381 79.6024L154.916 80.4877C155.941 81.0263 157.103 81.289 158.389 81.289V80.289ZM155.384 79.6041C154.548 79.1569 153.888 78.4939 153.404 77.5991L152.525 78.075C153.097 79.1322 153.894 79.9412 154.913 80.486L155.384 79.6041ZM153.409 77.6077C152.942 76.7035 152.697 75.5786 152.697 74.213H151.697C151.697 75.6954 151.963 76.9866 152.52 78.0664L153.409 77.6077ZM152.697 74.213C152.697 72.8585 152.92 71.7254 153.347 70.7981L152.438 70.38C151.937 71.4687 151.697 72.7516 151.697 74.213H152.697ZM153.344 70.804C153.788 69.8708 154.393 69.1702 155.155 68.6819L154.615 67.8402C153.68 68.4399 152.957 69.2913 152.441 70.3741L153.344 70.804ZM155.151 68.6842C155.926 68.1959 156.832 67.945 157.885 67.945V66.945C156.665 66.945 155.571 67.2382 154.618 67.8379L155.151 68.6842ZM157.861 68.673C156.733 68.673 155.79 69.0457 155.089 69.8221L155.832 70.492C156.315 69.9564 156.972 69.673 157.861 69.673V68.673ZM155.089 69.8226C154.42 70.5653 154.05 71.5745 153.931 72.7967L154.926 72.8934C155.031 71.8116 155.349 71.0287 155.832 70.4915L155.089 69.8226ZM154.429 73.345H160.981V72.345H154.429V73.345ZM161.481 72.845C161.481 72.0596 161.361 71.3521 161.107 70.7347L160.182 71.1154C160.376 71.5859 160.481 72.1585 160.481 72.845H161.481ZM161.107 70.7347C160.847 70.1034 160.44 69.5975 159.887 69.2348L159.339 70.0713C159.713 70.3166 159.994 70.6587 160.182 71.1154L161.107 70.7347ZM159.903 69.2462C159.348 68.8494 158.653 68.673 157.861 68.673V69.673C158.508 69.673 158.982 69.8167 159.322 70.0599L159.903 69.2462ZM173.232 67.493L173.173 67.9896L173.188 67.9914L173.204 67.9923L173.232 67.493ZM173.976 67.589L174.471 67.6563L174.532 67.2044L174.088 67.1018L173.976 67.589ZM173.712 69.533L173.599 70.0202L174.133 70.1435L174.207 69.6003L173.712 69.533ZM173.016 69.413L172.949 69.9087L172.954 69.9092L173.016 69.413ZM170.904 69.677L171.114 70.1305V70.1305L170.904 69.677ZM169.704 70.565L170.065 70.9107L170.072 70.9029L169.704 70.565ZM168.864 71.909L168.398 71.7257L168.394 71.7382L168.864 71.909ZM168.576 80.549V81.049H169.076V80.549H168.576ZM166.464 80.549H165.964V81.049H166.464V80.549ZM166.464 67.685V67.185H165.964V67.685H166.464ZM168.192 67.685L168.689 67.6343L168.643 67.185H168.192V67.685ZM168.432 70.037L167.934 70.0878L167.98 70.537H168.432V70.037ZM168.528 70.037V70.537H168.819L168.963 70.2835L168.528 70.037ZM169.512 68.741L169.865 69.0947L169.872 69.0873L169.512 68.741ZM170.832 67.805L171.037 68.2609L171.049 68.2551L170.832 67.805ZM172.464 67.945C172.682 67.945 172.918 67.9596 173.173 67.9896L173.29 66.9965C173.001 66.9625 172.726 66.945 172.464 66.945V67.945ZM173.204 67.9923C173.472 68.0072 173.691 68.0364 173.863 68.0762L174.088 67.1018C173.844 67.0456 173.567 67.0109 173.259 66.9938L173.204 67.9923ZM173.48 67.5218L173.216 69.4658L174.207 69.6003L174.471 67.6563L173.48 67.5218ZM173.824 69.0458C173.596 68.9933 173.347 68.9506 173.078 68.9169L172.954 69.9092C173.196 69.9395 173.411 69.9768 173.599 70.0202L173.824 69.0458ZM173.082 68.9174C172.821 68.8827 172.567 68.865 172.32 68.865V69.865C172.52 69.865 172.73 69.8793 172.949 69.9087L173.082 68.9174ZM172.32 68.865C171.751 68.865 171.207 68.9848 170.693 69.2235L171.114 70.1305C171.496 69.9533 171.896 69.865 172.32 69.865V68.865ZM170.693 69.2235C170.182 69.4608 169.729 69.7973 169.335 70.2272L170.072 70.9029C170.382 70.5648 170.729 70.3093 171.114 70.1305L170.693 69.2235ZM169.342 70.2194C168.941 70.6394 168.627 71.1443 168.398 71.7258L169.329 72.0923C169.516 71.6177 169.763 71.2267 170.065 70.9107L169.342 70.2194ZM168.394 71.7382C168.179 72.3293 168.076 72.9803 168.076 73.685H169.076C169.076 73.0777 169.164 72.5448 169.333 72.0799L168.394 71.7382ZM168.076 73.685V80.549H169.076V73.685H168.076ZM168.576 80.049H166.464V81.049H168.576V80.049ZM166.964 80.549V67.685H165.964V80.549H166.964ZM166.464 68.185H168.192V67.185H166.464V68.185ZM167.694 67.7358L167.934 70.0878L168.929 69.9863L168.689 67.6343L167.694 67.7358ZM168.432 70.537H168.528V69.537H168.432V70.537ZM168.963 70.2835C169.213 69.8421 169.513 69.4462 169.865 69.0946L169.158 68.3875C168.742 68.8038 168.386 69.272 168.093 69.7905L168.963 70.2835ZM169.872 69.0873C170.213 68.7324 170.601 68.458 171.037 68.2607L170.626 67.3494C170.07 67.6001 169.578 67.9496 169.151 68.3948L169.872 69.0873ZM171.049 68.2551C171.472 68.0504 171.941 67.945 172.464 67.945V66.945C171.802 66.945 171.183 67.0797 170.614 67.355L171.049 68.2551Z" fill="#5E5E5E"/>
</svg>
